<mxfile host="app.diagrams.net" modified="2024-05-20T16:05:50.126Z" agent="Mozilla/5.0 (Windows NT 10.0; Win64; x64) AppleWebKit/537.36 (KHTML, like Gecko) Chrome/124.0.0.0 Safari/537.36" etag="aWaSTGVQwVw8MjPdMoci" version="24.4.4" type="github">
  <diagram name="Page-1" id="e7e014a7-5840-1c2e-5031-d8a46d1fe8dd">
    <mxGraphModel dx="1886" dy="730" grid="1" gridSize="10" guides="1" tooltips="1" connect="1" arrows="1" fold="1" page="1" pageScale="1" pageWidth="1169" pageHeight="826" background="none" math="0" shadow="0">
      <root>
        <mxCell id="0" />
        <mxCell id="1" parent="0" />
        <mxCell id="Vq0XR2EO8Mxaf7Wyw2bL-41" value="Guest" style="ellipse;whiteSpace=wrap;html=1;" vertex="1" parent="1">
          <mxGeometry x="60" y="140" width="110" height="80" as="geometry" />
        </mxCell>
        <mxCell id="Vq0XR2EO8Mxaf7Wyw2bL-64" style="edgeStyle=orthogonalEdgeStyle;rounded=0;orthogonalLoop=1;jettySize=auto;html=1;entryX=0;entryY=0.75;entryDx=0;entryDy=0;" edge="1" parent="1" source="Vq0XR2EO8Mxaf7Wyw2bL-42" target="Vq0XR2EO8Mxaf7Wyw2bL-58">
          <mxGeometry relative="1" as="geometry" />
        </mxCell>
        <mxCell id="Vq0XR2EO8Mxaf7Wyw2bL-66" style="edgeStyle=orthogonalEdgeStyle;rounded=0;orthogonalLoop=1;jettySize=auto;html=1;entryX=0;entryY=0.5;entryDx=0;entryDy=0;" edge="1" parent="1" source="Vq0XR2EO8Mxaf7Wyw2bL-42" target="Vq0XR2EO8Mxaf7Wyw2bL-65">
          <mxGeometry relative="1" as="geometry" />
        </mxCell>
        <mxCell id="Vq0XR2EO8Mxaf7Wyw2bL-69" style="edgeStyle=orthogonalEdgeStyle;rounded=0;orthogonalLoop=1;jettySize=auto;html=1;exitX=1;exitY=0.5;exitDx=0;exitDy=0;entryX=0;entryY=0.5;entryDx=0;entryDy=0;" edge="1" parent="1" source="Vq0XR2EO8Mxaf7Wyw2bL-42" target="Vq0XR2EO8Mxaf7Wyw2bL-68">
          <mxGeometry relative="1" as="geometry" />
        </mxCell>
        <mxCell id="Vq0XR2EO8Mxaf7Wyw2bL-72" style="edgeStyle=orthogonalEdgeStyle;rounded=0;orthogonalLoop=1;jettySize=auto;html=1;entryX=0;entryY=0.5;entryDx=0;entryDy=0;" edge="1" parent="1" source="Vq0XR2EO8Mxaf7Wyw2bL-42" target="Vq0XR2EO8Mxaf7Wyw2bL-71">
          <mxGeometry relative="1" as="geometry" />
        </mxCell>
        <mxCell id="Vq0XR2EO8Mxaf7Wyw2bL-73" style="edgeStyle=orthogonalEdgeStyle;rounded=0;orthogonalLoop=1;jettySize=auto;html=1;entryX=0;entryY=0.5;entryDx=0;entryDy=0;" edge="1" parent="1" source="Vq0XR2EO8Mxaf7Wyw2bL-42" target="Vq0XR2EO8Mxaf7Wyw2bL-70">
          <mxGeometry relative="1" as="geometry" />
        </mxCell>
        <mxCell id="Vq0XR2EO8Mxaf7Wyw2bL-101" style="edgeStyle=orthogonalEdgeStyle;rounded=0;orthogonalLoop=1;jettySize=auto;html=1;entryX=0;entryY=0.5;entryDx=0;entryDy=0;" edge="1" parent="1" source="Vq0XR2EO8Mxaf7Wyw2bL-42" target="Vq0XR2EO8Mxaf7Wyw2bL-100">
          <mxGeometry relative="1" as="geometry" />
        </mxCell>
        <mxCell id="Vq0XR2EO8Mxaf7Wyw2bL-42" value="Member" style="ellipse;whiteSpace=wrap;html=1;" vertex="1" parent="1">
          <mxGeometry x="60" y="270" width="110" height="70" as="geometry" />
        </mxCell>
        <mxCell id="Vq0XR2EO8Mxaf7Wyw2bL-96" style="edgeStyle=orthogonalEdgeStyle;rounded=0;orthogonalLoop=1;jettySize=auto;html=1;entryX=1;entryY=0.5;entryDx=0;entryDy=0;" edge="1" parent="1" source="Vq0XR2EO8Mxaf7Wyw2bL-43" target="Vq0XR2EO8Mxaf7Wyw2bL-92">
          <mxGeometry relative="1" as="geometry" />
        </mxCell>
        <mxCell id="Vq0XR2EO8Mxaf7Wyw2bL-97" style="edgeStyle=orthogonalEdgeStyle;rounded=0;orthogonalLoop=1;jettySize=auto;html=1;" edge="1" parent="1" source="Vq0XR2EO8Mxaf7Wyw2bL-43" target="Vq0XR2EO8Mxaf7Wyw2bL-95">
          <mxGeometry relative="1" as="geometry" />
        </mxCell>
        <mxCell id="Vq0XR2EO8Mxaf7Wyw2bL-98" style="edgeStyle=orthogonalEdgeStyle;rounded=0;orthogonalLoop=1;jettySize=auto;html=1;entryX=1;entryY=0.5;entryDx=0;entryDy=0;" edge="1" parent="1" source="Vq0XR2EO8Mxaf7Wyw2bL-43" target="Vq0XR2EO8Mxaf7Wyw2bL-94">
          <mxGeometry relative="1" as="geometry" />
        </mxCell>
        <mxCell id="Vq0XR2EO8Mxaf7Wyw2bL-99" style="edgeStyle=orthogonalEdgeStyle;rounded=0;orthogonalLoop=1;jettySize=auto;html=1;entryX=1;entryY=0.5;entryDx=0;entryDy=0;" edge="1" parent="1" source="Vq0XR2EO8Mxaf7Wyw2bL-43" target="Vq0XR2EO8Mxaf7Wyw2bL-93">
          <mxGeometry relative="1" as="geometry" />
        </mxCell>
        <mxCell id="Vq0XR2EO8Mxaf7Wyw2bL-43" value="Admin" style="ellipse;whiteSpace=wrap;html=1;" vertex="1" parent="1">
          <mxGeometry x="860" y="85" width="120" height="80" as="geometry" />
        </mxCell>
        <mxCell id="Vq0XR2EO8Mxaf7Wyw2bL-85" style="edgeStyle=orthogonalEdgeStyle;rounded=0;orthogonalLoop=1;jettySize=auto;html=1;entryX=0;entryY=0.5;entryDx=0;entryDy=0;" edge="1" parent="1" source="Vq0XR2EO8Mxaf7Wyw2bL-44" target="Vq0XR2EO8Mxaf7Wyw2bL-84">
          <mxGeometry relative="1" as="geometry" />
        </mxCell>
        <mxCell id="Vq0XR2EO8Mxaf7Wyw2bL-44" value="System" style="ellipse;whiteSpace=wrap;html=1;" vertex="1" parent="1">
          <mxGeometry x="50" y="670" width="120" height="80" as="geometry" />
        </mxCell>
        <mxCell id="Vq0XR2EO8Mxaf7Wyw2bL-67" style="edgeStyle=orthogonalEdgeStyle;rounded=0;orthogonalLoop=1;jettySize=auto;html=1;entryX=1;entryY=0.5;entryDx=0;entryDy=0;" edge="1" parent="1" source="Vq0XR2EO8Mxaf7Wyw2bL-45" target="Vq0XR2EO8Mxaf7Wyw2bL-65">
          <mxGeometry relative="1" as="geometry" />
        </mxCell>
        <mxCell id="Vq0XR2EO8Mxaf7Wyw2bL-81" style="edgeStyle=orthogonalEdgeStyle;rounded=0;orthogonalLoop=1;jettySize=auto;html=1;entryX=1;entryY=0.5;entryDx=0;entryDy=0;" edge="1" parent="1" source="Vq0XR2EO8Mxaf7Wyw2bL-45" target="Vq0XR2EO8Mxaf7Wyw2bL-70">
          <mxGeometry relative="1" as="geometry" />
        </mxCell>
        <mxCell id="Vq0XR2EO8Mxaf7Wyw2bL-82" style="edgeStyle=orthogonalEdgeStyle;rounded=0;orthogonalLoop=1;jettySize=auto;html=1;entryX=0.5;entryY=1;entryDx=0;entryDy=0;" edge="1" parent="1" source="Vq0XR2EO8Mxaf7Wyw2bL-45" target="Vq0XR2EO8Mxaf7Wyw2bL-71">
          <mxGeometry relative="1" as="geometry" />
        </mxCell>
        <mxCell id="Vq0XR2EO8Mxaf7Wyw2bL-102" style="edgeStyle=orthogonalEdgeStyle;rounded=0;orthogonalLoop=1;jettySize=auto;html=1;entryX=1;entryY=0.5;entryDx=0;entryDy=0;" edge="1" parent="1" source="Vq0XR2EO8Mxaf7Wyw2bL-45" target="Vq0XR2EO8Mxaf7Wyw2bL-100">
          <mxGeometry relative="1" as="geometry" />
        </mxCell>
        <mxCell id="Vq0XR2EO8Mxaf7Wyw2bL-45" value="Supervisor" style="ellipse;whiteSpace=wrap;html=1;" vertex="1" parent="1">
          <mxGeometry x="870" y="290" width="120" height="80" as="geometry" />
        </mxCell>
        <mxCell id="Vq0XR2EO8Mxaf7Wyw2bL-47" value="Search" style="ellipse;whiteSpace=wrap;html=1;" vertex="1" parent="1">
          <mxGeometry x="310" y="170" width="80" height="40" as="geometry" />
        </mxCell>
        <mxCell id="Vq0XR2EO8Mxaf7Wyw2bL-48" value="Title" style="ellipse;whiteSpace=wrap;html=1;" vertex="1" parent="1">
          <mxGeometry x="440" y="80" width="80" height="40" as="geometry" />
        </mxCell>
        <mxCell id="Vq0XR2EO8Mxaf7Wyw2bL-49" value="City" style="ellipse;whiteSpace=wrap;html=1;" vertex="1" parent="1">
          <mxGeometry x="440" y="280" width="80" height="40" as="geometry" />
        </mxCell>
        <mxCell id="Vq0XR2EO8Mxaf7Wyw2bL-50" value="Date" style="ellipse;whiteSpace=wrap;html=1;" vertex="1" parent="1">
          <mxGeometry x="440" y="230" width="80" height="40" as="geometry" />
        </mxCell>
        <mxCell id="Vq0XR2EO8Mxaf7Wyw2bL-51" value="Genre" style="ellipse;whiteSpace=wrap;html=1;" vertex="1" parent="1">
          <mxGeometry x="440" y="180" width="80" height="40" as="geometry" />
        </mxCell>
        <mxCell id="Vq0XR2EO8Mxaf7Wyw2bL-52" value="Language" style="ellipse;whiteSpace=wrap;html=1;" vertex="1" parent="1">
          <mxGeometry x="440" y="130" width="80" height="40" as="geometry" />
        </mxCell>
        <mxCell id="Vq0XR2EO8Mxaf7Wyw2bL-53" value="" style="endArrow=classic;html=1;rounded=0;entryX=0;entryY=0.5;entryDx=0;entryDy=0;exitX=0.5;exitY=0;exitDx=0;exitDy=0;" edge="1" parent="1" source="Vq0XR2EO8Mxaf7Wyw2bL-47" target="Vq0XR2EO8Mxaf7Wyw2bL-48">
          <mxGeometry width="50" height="50" relative="1" as="geometry">
            <mxPoint x="370" y="160" as="sourcePoint" />
            <mxPoint x="420" y="110" as="targetPoint" />
          </mxGeometry>
        </mxCell>
        <mxCell id="Vq0XR2EO8Mxaf7Wyw2bL-54" value="" style="endArrow=classic;html=1;rounded=0;exitX=1;exitY=0;exitDx=0;exitDy=0;" edge="1" parent="1" source="Vq0XR2EO8Mxaf7Wyw2bL-47">
          <mxGeometry width="50" height="50" relative="1" as="geometry">
            <mxPoint x="390" y="200" as="sourcePoint" />
            <mxPoint x="440" y="150" as="targetPoint" />
          </mxGeometry>
        </mxCell>
        <mxCell id="Vq0XR2EO8Mxaf7Wyw2bL-55" value="" style="endArrow=classic;html=1;rounded=0;exitX=1;exitY=0.5;exitDx=0;exitDy=0;" edge="1" parent="1" source="Vq0XR2EO8Mxaf7Wyw2bL-47">
          <mxGeometry width="50" height="50" relative="1" as="geometry">
            <mxPoint x="390" y="250" as="sourcePoint" />
            <mxPoint x="440" y="200" as="targetPoint" />
          </mxGeometry>
        </mxCell>
        <mxCell id="Vq0XR2EO8Mxaf7Wyw2bL-56" value="" style="endArrow=classic;html=1;rounded=0;exitX=1;exitY=1;exitDx=0;exitDy=0;" edge="1" parent="1" source="Vq0XR2EO8Mxaf7Wyw2bL-47">
          <mxGeometry width="50" height="50" relative="1" as="geometry">
            <mxPoint x="390" y="300" as="sourcePoint" />
            <mxPoint x="440" y="250" as="targetPoint" />
          </mxGeometry>
        </mxCell>
        <mxCell id="Vq0XR2EO8Mxaf7Wyw2bL-57" value="" style="endArrow=classic;html=1;rounded=0;exitX=0.5;exitY=1;exitDx=0;exitDy=0;" edge="1" parent="1" source="Vq0XR2EO8Mxaf7Wyw2bL-47">
          <mxGeometry width="50" height="50" relative="1" as="geometry">
            <mxPoint x="390" y="350" as="sourcePoint" />
            <mxPoint x="440" y="300" as="targetPoint" />
          </mxGeometry>
        </mxCell>
        <mxCell id="Vq0XR2EO8Mxaf7Wyw2bL-58" value="«interface»&lt;br&gt;&lt;b&gt;Search&lt;/b&gt;" style="html=1;whiteSpace=wrap;" vertex="1" parent="1">
          <mxGeometry x="295" y="160" width="110" height="50" as="geometry" />
        </mxCell>
        <mxCell id="Vq0XR2EO8Mxaf7Wyw2bL-59" style="edgeStyle=orthogonalEdgeStyle;rounded=0;orthogonalLoop=1;jettySize=auto;html=1;exitX=1;exitY=0.5;exitDx=0;exitDy=0;entryX=0.141;entryY=0.234;entryDx=0;entryDy=0;entryPerimeter=0;" edge="1" parent="1" source="Vq0XR2EO8Mxaf7Wyw2bL-41">
          <mxGeometry relative="1" as="geometry">
            <mxPoint x="290.24" y="189.76" as="targetPoint" />
          </mxGeometry>
        </mxCell>
        <mxCell id="Vq0XR2EO8Mxaf7Wyw2bL-65" value="CRUD booking" style="ellipse;whiteSpace=wrap;html=1;" vertex="1" parent="1">
          <mxGeometry x="440" y="350" width="80" height="40" as="geometry" />
        </mxCell>
        <mxCell id="Vq0XR2EO8Mxaf7Wyw2bL-68" value="Add discount" style="ellipse;whiteSpace=wrap;html=1;" vertex="1" parent="1">
          <mxGeometry x="440" y="400" width="80" height="40" as="geometry" />
        </mxCell>
        <mxCell id="Vq0XR2EO8Mxaf7Wyw2bL-70" value="Select seats" style="ellipse;whiteSpace=wrap;html=1;" vertex="1" parent="1">
          <mxGeometry x="440" y="460" width="80" height="40" as="geometry" />
        </mxCell>
        <mxCell id="Vq0XR2EO8Mxaf7Wyw2bL-78" style="edgeStyle=orthogonalEdgeStyle;rounded=0;orthogonalLoop=1;jettySize=auto;html=1;exitX=1;exitY=0.5;exitDx=0;exitDy=0;entryX=0;entryY=1;entryDx=0;entryDy=0;" edge="1" parent="1" source="Vq0XR2EO8Mxaf7Wyw2bL-71" target="Vq0XR2EO8Mxaf7Wyw2bL-75">
          <mxGeometry relative="1" as="geometry" />
        </mxCell>
        <mxCell id="Vq0XR2EO8Mxaf7Wyw2bL-79" style="edgeStyle=orthogonalEdgeStyle;rounded=0;orthogonalLoop=1;jettySize=auto;html=1;entryX=0;entryY=0;entryDx=0;entryDy=0;" edge="1" parent="1" source="Vq0XR2EO8Mxaf7Wyw2bL-71" target="Vq0XR2EO8Mxaf7Wyw2bL-74">
          <mxGeometry relative="1" as="geometry" />
        </mxCell>
        <mxCell id="Vq0XR2EO8Mxaf7Wyw2bL-71" value="Payment" style="ellipse;whiteSpace=wrap;html=1;" vertex="1" parent="1">
          <mxGeometry x="440" y="520" width="80" height="40" as="geometry" />
        </mxCell>
        <mxCell id="Vq0XR2EO8Mxaf7Wyw2bL-74" value="Card" style="ellipse;whiteSpace=wrap;html=1;" vertex="1" parent="1">
          <mxGeometry x="540" y="550" width="60" height="20" as="geometry" />
        </mxCell>
        <mxCell id="Vq0XR2EO8Mxaf7Wyw2bL-75" value="Cash" style="ellipse;whiteSpace=wrap;html=1;" vertex="1" parent="1">
          <mxGeometry x="540" y="510" width="55" height="20" as="geometry" />
        </mxCell>
        <mxCell id="Vq0XR2EO8Mxaf7Wyw2bL-77" value="Extends&lt;div&gt;&lt;br&gt;&lt;/div&gt;" style="text;html=1;align=center;verticalAlign=middle;whiteSpace=wrap;rounded=0;" vertex="1" parent="1">
          <mxGeometry x="345" y="110" width="60" height="30" as="geometry" />
        </mxCell>
        <mxCell id="Vq0XR2EO8Mxaf7Wyw2bL-80" value="&lt;div&gt;Include&lt;/div&gt;" style="text;html=1;align=center;verticalAlign=middle;whiteSpace=wrap;rounded=0;" vertex="1" parent="1">
          <mxGeometry x="490" y="500" width="60" height="30" as="geometry" />
        </mxCell>
        <mxCell id="Vq0XR2EO8Mxaf7Wyw2bL-89" style="edgeStyle=orthogonalEdgeStyle;rounded=0;orthogonalLoop=1;jettySize=auto;html=1;entryX=0;entryY=0.5;entryDx=0;entryDy=0;" edge="1" parent="1" source="Vq0XR2EO8Mxaf7Wyw2bL-84" target="Vq0XR2EO8Mxaf7Wyw2bL-87">
          <mxGeometry relative="1" as="geometry" />
        </mxCell>
        <mxCell id="Vq0XR2EO8Mxaf7Wyw2bL-90" style="edgeStyle=orthogonalEdgeStyle;rounded=0;orthogonalLoop=1;jettySize=auto;html=1;entryX=0;entryY=0.5;entryDx=0;entryDy=0;" edge="1" parent="1" source="Vq0XR2EO8Mxaf7Wyw2bL-84" target="Vq0XR2EO8Mxaf7Wyw2bL-86">
          <mxGeometry relative="1" as="geometry" />
        </mxCell>
        <mxCell id="Vq0XR2EO8Mxaf7Wyw2bL-84" value="Send notification" style="ellipse;whiteSpace=wrap;html=1;" vertex="1" parent="1">
          <mxGeometry x="436.25" y="685" width="87.5" height="50" as="geometry" />
        </mxCell>
        <mxCell id="Vq0XR2EO8Mxaf7Wyw2bL-86" value="Booking status" style="ellipse;whiteSpace=wrap;html=1;" vertex="1" parent="1">
          <mxGeometry x="556" y="720" width="55" height="55" as="geometry" />
        </mxCell>
        <mxCell id="Vq0XR2EO8Mxaf7Wyw2bL-87" value="New movie" style="ellipse;whiteSpace=wrap;html=1;" vertex="1" parent="1">
          <mxGeometry x="558" y="650" width="53" height="60" as="geometry" />
        </mxCell>
        <mxCell id="Vq0XR2EO8Mxaf7Wyw2bL-91" value="&lt;div&gt;Extends&lt;/div&gt;" style="text;html=1;align=center;verticalAlign=middle;whiteSpace=wrap;rounded=0;" vertex="1" parent="1">
          <mxGeometry x="490" y="650" width="60" height="30" as="geometry" />
        </mxCell>
        <mxCell id="Vq0XR2EO8Mxaf7Wyw2bL-92" value="CRUD cinema" style="ellipse;whiteSpace=wrap;html=1;" vertex="1" parent="1">
          <mxGeometry x="670" y="40" width="80" height="40" as="geometry" />
        </mxCell>
        <mxCell id="Vq0XR2EO8Mxaf7Wyw2bL-93" value="Create supervisor" style="ellipse;whiteSpace=wrap;html=1;" vertex="1" parent="1">
          <mxGeometry x="670" y="250" width="80" height="40" as="geometry" />
        </mxCell>
        <mxCell id="Vq0XR2EO8Mxaf7Wyw2bL-94" value="Block/ unblock" style="ellipse;whiteSpace=wrap;html=1;" vertex="1" parent="1">
          <mxGeometry x="660" y="175" width="90" height="50" as="geometry" />
        </mxCell>
        <mxCell id="Vq0XR2EO8Mxaf7Wyw2bL-95" value="CRUD movie" style="ellipse;whiteSpace=wrap;html=1;" vertex="1" parent="1">
          <mxGeometry x="670" y="105" width="80" height="40" as="geometry" />
        </mxCell>
        <mxCell id="Vq0XR2EO8Mxaf7Wyw2bL-100" value="Refund on cancellation" style="ellipse;whiteSpace=wrap;html=1;" vertex="1" parent="1">
          <mxGeometry x="440" y="590" width="80" height="40" as="geometry" />
        </mxCell>
      </root>
    </mxGraphModel>
  </diagram>
</mxfile>
